# xmcd
#
# Track frame offsets:
#	150
#	21235
#	34080
#	45997
#	63995
#	81340
#	100955
#	116812
#	135590
#	155782
#	167905
#	178445
#	194930
#	207222
#	222522
#	243162
#	255087
#	278340
#
# Disc length: 3868 seconds
#
# Revision: 1
# Processed by: cddbd v1.5.1PL2 Copyright (c) Steve Scherf et al.
# Submitted via: audiograbber 1.83.01
#
DISCID=080f1a12
DTITLE=Various Artist - Truckers Hits 2
DYEAR=2000
DGENRE=
TTITLE0=Lynyrd Skynyrd - Sweet Home Alabama
TTITLE1=J.J.Cale - Cocaine
TTITLE2=Martha Reeves and The Vandellas - Dancing in the streets
TTITLE3=The Commitments - Mustang Sally
TTITLE4=Bachman Turner Overdrive - You ain´t seen nothing yet
TTITLE5=The Mavericks - Dancing the night away
TTITLE6=Iggy pop - Real wild child
TTITLE7=Tony Joe White - Crack the window, Baby
TTITLE8=Four Tops and The Supremes - River deep, Mountain high
TTITLE9=Chuck Berry - You never can tell
TTITLE10=Jerry Lee Lewis - Hit the road, Jack
TTITLE11=Status Quo - Caroline
TTITLE12=Jonny Cash - Sixteen tons
TTITLE13=Stealers Wheel - Stuck in the middel with you
TTITLE14=Marianne Faithful - Broken English
TTITLE15=Soft Cell - Tainted Love
TTITLE16=The Scorpions - Wind of change
TTITLE17=The Mamas and The Papas - California dreaming
EXTD=
EXTT0=
EXTT1=
EXTT2=
EXTT3=
EXTT4=
EXTT5=
EXTT6=
EXTT7=
EXTT8=
EXTT9=
EXTT10=
EXTT11=
EXTT12=
EXTT13=
EXTT14=
EXTT15=
EXTT16=
EXTT17=
PLAYORDER=
